<svg width="40" height="40" viewBox="-5 -8 40 40" fill="none" xmlns="http://www.w3.org/2000/svg">
  <path
    d="M5.11764 4.96739L0.651913 12.7011C0.224909 13.4407 7.36981e-05 14.2796 1.81147e-08 15.1336C-7.36619e-05 15.9876 0.224619 16.8266 0.651496 17.5663C1.07837 18.3059 1.6924 18.9202 2.43188 19.3474C3.17136 19.7746 4.01025 19.9997 4.86426 20H20.1243L11.4376 4.96739C11.1175 4.41248 10.6569 3.95165 10.1022 3.63125C9.54752 3.31084 8.91821 3.14215 8.27761 3.14215C7.63701 3.14215 7.00771 3.31084 6.453 3.63125C5.89828 3.95165 5.43772 4.41248 5.11764 4.96739Z"
    fill="url(#paint0_linear_11109_47848)" />
  <path
    d="M5.11764 4.96739L0.651913 12.7011C0.224909 13.4407 7.36981e-05 14.2796 1.81147e-08 15.1336C-7.36619e-05 15.9876 0.224619 16.8266 0.651496 17.5663C1.07837 18.3059 1.6924 18.9202 2.43188 19.3474C3.17136 19.7746 4.01025 19.9997 4.86426 20H20.1243L11.4376 4.96739C11.1175 4.41248 10.6569 3.95165 10.1022 3.63125C9.54752 3.31084 8.91821 3.14215 8.27761 3.14215C7.63701 3.14215 7.00771 3.31084 6.453 3.63125C5.89828 3.95165 5.43772 4.41248 5.11764 4.96739Z"
    fill="url(#paint1_linear_11109_47848)" />
  <path
    d="M12.5283 10.2652V9.68933C12.5303 9.64908 12.5239 9.60885 12.5095 9.57124C12.495 9.53362 12.4728 9.49946 12.4443 9.47096C12.4158 9.44246 12.3816 9.42027 12.344 9.40581C12.3064 9.39135 12.2662 9.38494 12.2259 9.38701H9.14801V8.56642C9.14429 8.48826 9.11041 8.41459 9.05349 8.36089C8.99657 8.3072 8.92105 8.27766 8.84281 8.2785H8.26696C8.22795 8.27654 8.18896 8.28254 8.15235 8.29614C8.11574 8.30973 8.08227 8.33063 8.05399 8.35757C8.02571 8.3845 8.00321 8.4169 7.98785 8.45281C7.97249 8.48871 7.96459 8.52737 7.96464 8.56642V9.38413H4.8752C4.83615 9.38408 4.79749 9.39198 4.76159 9.40734C4.72568 9.4227 4.69328 9.44521 4.66634 9.47349C4.63941 9.50177 4.61851 9.53523 4.60492 9.57184C4.59133 9.60845 4.58532 9.64745 4.58727 9.68645V10.2623C4.58644 10.3405 4.61598 10.4161 4.66967 10.473C4.72337 10.5299 4.79704 10.5638 4.8752 10.5675H5.96068C6.27228 11.717 6.85592 12.7747 7.66232 13.6512C6.8836 14.2396 6.00604 14.6842 5.07099 14.9641C5.03228 14.9736 4.99596 14.991 4.96433 15.0153C4.9327 15.0395 4.90645 15.07 4.88723 15.105C4.86802 15.1399 4.85626 15.1784 4.8527 15.2181C4.84914 15.2578 4.85386 15.2978 4.86656 15.3355L5.02492 15.9114C5.03389 15.9514 5.0513 15.989 5.07597 16.0217C5.10064 16.0544 5.13201 16.0815 5.16799 16.1011C5.20397 16.1208 5.24372 16.1325 5.28459 16.1355C5.32546 16.1385 5.36651 16.1328 5.40499 16.1187C6.55009 15.7806 7.61948 15.2253 8.55488 14.4833C9.49134 15.2254 10.5617 15.7806 11.7077 16.1187C11.7462 16.1306 11.7868 16.1346 11.8269 16.1306C11.8671 16.1265 11.906 16.1145 11.9414 16.0952C11.9768 16.0759 12.008 16.0496 12.0331 16.0181C12.0583 15.9865 12.0768 15.9502 12.0877 15.9114L12.2461 15.3355C12.2667 15.2588 12.2565 15.1771 12.2178 15.1078C12.1791 15.0384 12.1149 14.9869 12.0388 14.9641C11.104 14.6836 10.2265 14.239 9.44745 13.6512C10.2549 12.7754 10.8387 11.7175 11.1491 10.5675H12.2375C12.3156 10.5645 12.3896 10.5314 12.4438 10.475C12.498 10.4186 12.5283 10.3434 12.5283 10.2652ZM8.54913 12.8565C7.94489 12.201 7.4866 11.4247 7.20452 10.579H9.89374C9.61401 11.4258 9.15544 12.2025 8.54913 12.8565Z"
    fill="white" />
  <path
    d="M29.1388 12.7011L22.9772 2.0248C22.6209 1.40906 22.1089 0.897859 21.4926 0.54247C20.8763 0.18708 20.1774 0 19.466 0C18.7546 0 18.0557 0.18708 17.4394 0.54247C16.8231 0.897859 16.3111 1.40906 15.9547 2.0248L7.60491 16.4988C5.56352 20.0316 3.08448 19.6286 2.66699 19.4846C3.34682 19.8259 4.09742 20.0024 4.8581 20H24.9323C25.7858 19.9987 26.6239 19.7729 27.3626 19.3453C28.1013 18.9177 28.7145 18.3033 29.1407 17.5638C29.5669 16.8243 29.7911 15.9857 29.7908 15.1322C29.7904 14.2787 29.5656 13.4402 29.1388 12.7011Z"
    fill="url(#paint2_linear_11109_47848)" />
  <path
    d="M22.8046 15.8538H23.8958C23.9414 15.8538 23.9862 15.8422 24.0261 15.8203C24.0661 15.7983 24.0998 15.7666 24.1242 15.7281C24.1486 15.6897 24.1629 15.6456 24.1658 15.6002C24.1686 15.5547 24.16 15.5092 24.1406 15.468L20.2133 7.1815C20.165 7.07878 20.0884 6.99197 19.9926 6.93127C19.8967 6.87058 19.7854 6.83852 19.672 6.83887H19.0443C18.9308 6.83852 18.8196 6.87058 18.7237 6.93127C18.6278 6.99197 18.5512 7.07878 18.503 7.1815L14.5843 15.468C14.5649 15.5092 14.5563 15.5547 14.5591 15.6002C14.562 15.6456 14.5763 15.6897 14.6007 15.7281C14.6251 15.7666 14.6588 15.7983 14.6988 15.8203C14.7387 15.8422 14.7835 15.8538 14.8291 15.8538H15.9203C15.9712 15.8519 16.0207 15.8364 16.0637 15.8091C16.1067 15.7818 16.1416 15.7436 16.165 15.6983L17.1267 13.6598H21.5895L22.5512 15.6983C22.5753 15.7448 22.6116 15.7839 22.6563 15.8113C22.7009 15.8387 22.7522 15.8534 22.8046 15.8538ZM17.763 12.3095L19.3495 8.94072L20.9417 12.3095H17.763Z"
    fill="white" />
  <defs>
    <linearGradient id="paint0_linear_11109_47848" x1="6.22903" y1="21.7016" x2="20.8499" y2="0.573642"
      gradientUnits="userSpaceOnUse">
      <stop stop-color="#00DEEC" />
      <stop offset="1" stop-color="#00FFBE" />
    </linearGradient>
    <linearGradient id="paint1_linear_11109_47848" x1="7.84429" y1="22.0874" x2="14.9791" y2="5.85419"
      gradientUnits="userSpaceOnUse">
      <stop stop-color="#00DEEC" />
      <stop offset="1" stop-color="#00F3CE" />
    </linearGradient>
    <linearGradient id="paint2_linear_11109_47848" x1="11.3767" y1="25.0963" x2="35.8533" y2="-10.2782"
      gradientUnits="userSpaceOnUse">
      <stop stop-color="#2C55FF" />
      <stop offset="0.21" stop-color="#2E51FF" />
      <stop offset="0.43" stop-color="#3444FF" />
      <stop offset="0.65" stop-color="#3F30FF" />
      <stop offset="0.88" stop-color="#4D13FF" />
      <stop offset="1" stop-color="#5700FF" />
    </linearGradient>
  </defs>
</svg>
